<svg xmlns="http://www.w3.org/2000/svg" version="1.1" xmlns:xlink="http://www.w3.org/1999/xlink" xmlns:svgjs="http://svgjs.dev/svgjs" width="100%" height="100%" viewBox="0 0 1000 600"><rect width="1000" height="600" x="0" y="0" fill="#000000"/><g><rect width="333.3333333333333" height="333.3333333333333" rx="13.333333333333334" ry="13.333333333333334" y="107.2246236892326" fill="#ffffff" transform="matrix(1.4705468758087359,0,0,1.4705468758087359,0,-102.76998960748297)" x="85.00241088867188"/><path d="M263.2950842646402 348.8912911361069L263.2950842646402 348.8912911361069Q228.02808557912064 348.8912911361069 209.55901192109937 328.9815721069451Q191.08993826307812 309.04304017036054 191.08993826307812 274.0065447442235L191.08993826307812 274.0065447442235Q191.08993826307812 250.75452845401577 199.3880556008474 233.95660342651746Q207.68617293861672 217.1586783990192 223.24514294693415 208.02498674598837Q238.8041129552516 198.8912950929576 260.7883613188557 198.8912950929576L260.7883613188557 198.8912950929576Q273.8694212888115 198.8912950929576 286.11490694350573 202.52172142823167Q298.36039259820006 206.15214776350575 307.8974649551502 214.0468843973557L307.8974649551502 214.0468843973557Q310.807568604854 216.12141373179804 311.21094930877337 219.11795610377027Q311.6143300126927 222.14331138316533 310.058433011861 224.73647305121824Q308.50253601102924 227.32963471927116 305.70768399101667 228.13639612710983Q302.91283197100404 228.97197044237134 299.80103796934054 226.897441107929L299.80103796934054 226.897441107929Q291.30123027961156 220.27047240068268 281.76415792266147 217.24511712128762Q272.1982726582885 214.24857474931537 260.58667096689607 214.24857474931537L260.58667096689607 214.24857474931537Q235.69231895358814 214.24857474931537 222.40956863167267 229.92279638732407Q209.15563121718003 245.56820511790994 209.15563121718003 274.0065447442235L209.15563121718003 274.0065447442235Q209.15563121718003 303.04995542641603 222.84176224301484 318.37842217535103Q236.52789326884962 333.7357018317088 263.6984649685595 333.7357018317088L263.6984649685595 333.7357018317088Q281.3319643113193 333.7357018317088 297.52481828293855 327.71380418034147L297.52481828293855 327.71380418034147L297.52481828293855 284.3791914164351L267.84752363744417 284.3791914164351Q260.38498061493635 284.3791914164351 260.38498061493635 277.5217194498063L260.38498061493635 277.5217194498063Q260.38498061493635 270.89475074256 267.84752363744417 270.89475074256L267.84752363744417 270.89475074256L304.98736130544637 270.89475074256Q312.24821397599453 270.89475074256 312.24821397599453 278.15560341310817L312.24821397599453 278.15560341310817L312.24821397599453 332.29505646056833Q312.24821397599453 338.720334815855 307.69577460319056 340.59317379833766L307.69577460319056 340.59317379833766Q298.9654636540791 344.3100388558801 286.835229629076 346.6150714497049Q274.70499560407296 348.8912911361069 263.2950842646402 348.8912911361069Z " fill="#000000" transform="matrix(1.4705468758087359,0,0,1.4705468758087359,0,-102.76998960748297)"/><path d="M510.94531695818324 348.89129934730494L510.94531695818324 348.89129934730494Q501.6690778717638 348.89129934730494 501.6690778717638 339.4102221738037L501.6690778717638 339.4102221738037L501.6690778717638 208.37237160917863Q501.6690778717638 198.8912944356774 511.1501550452651 198.8912944356774L511.1501550452651 198.8912944356774L587.6425492783892 198.8912944356774Q595.0167204133346 198.8912944356774 595.0167204133346 206.06062748354097L595.0167204133346 206.06062748354097Q595.0167204133346 213.43479861848638 587.6425492783892 213.43479861848638L587.6425492783892 213.43479861848638L518.9632649382429 213.43479861848638L518.9632649382429 265.25883465018603L583.2238991141958 265.25883465018603Q590.802908336223 265.25883465018603 590.802908336223 272.4281676980496L590.802908336223 272.4281676980496Q590.802908336223 279.802338832995 583.2238991141958 279.802338832995L583.2238991141958 279.802338832995L518.9632649382429 279.802338832995L518.9632649382429 339.4102221738037Q518.9632649382429 348.89129934730494 510.94531695818324 348.89129934730494Z " fill="#f7f7f9" transform="matrix(1.4705468758087359,0,0,1.4705468758087359,0,-102.76998960748297)"/></g></svg>